<svg width="82" height="62" viewBox="0 0 82 62" fill="none" xmlns="http://www.w3.org/2000/svg">
<path d="M31.8506 1.40738H53.3027C54.853 1.40738 56.2012 2.4333 56.6309 3.89761L56.7041 4.19644C57.2155 6.7526 59.4605 8.59195 62.0674 8.59195H76.875C79.0839 8.59206 80.8747 10.3831 80.875 12.5919V56.2404C80.875 58.4495 79.084 60.2403 76.875 60.2404H5.44434C3.2352 60.2404 1.44434 58.4495 1.44434 56.2404V12.5919C1.44459 10.383 3.23535 8.59195 5.44434 8.59195H23.6445C26.1399 8.59178 28.2615 6.80253 28.7012 4.36929L28.7383 4.13199C28.9462 2.57228 30.2771 1.40749 31.8506 1.40738Z" stroke="#074264" stroke-width="2"/>
<path d="M41.6392 16.2568C52.1978 16.2568 60.7573 24.8163 60.7573 35.375C60.7573 45.9336 52.1978 54.4931 41.6392 54.4931C31.0805 54.4931 22.521 45.9336 22.521 35.375C22.521 24.8163 31.0805 16.2568 41.6392 16.2568Z" stroke="#074264" stroke-width="2"/>
<circle cx="41.6386" cy="35.3748" r="8.12205" stroke="#074264"/>
<path d="M54.0923 35.3749C54.0923 29.0258 48.9453 23.8788 42.5962 23.8788" stroke="#074264" stroke-linecap="round"/>
<circle cx="21.521" cy="49.7449" r="2.37402" stroke="#074264"/>
<line x1="2.35986" y1="18.3392" x2="33.974" y2="18.3392" stroke="#074264" stroke-width="1.5"/>
<line x1="50.2612" y1="18.3392" x2="80.9174" y2="18.3392" stroke="#074264" stroke-width="1.5"/>
<rect x="64.1724" y="11.9243" width="8.58005" height="3.79003" rx="1" stroke="#074264"/>
<path d="M14.8149 5.21918H19.605C20.387 5.21919 21.021 5.85316 21.021 6.63519V8.05121H13.8569C13.604 8.05121 13.3989 7.84615 13.3989 7.5932V6.63519C13.3989 5.85315 14.0329 5.21918 14.8149 5.21918Z" stroke="#074264"/>
</svg>
