<svg width="83" height="83" viewBox="0 0 83 83" fill="none" xmlns="http://www.w3.org/2000/svg">
<rect x="1" y="53.7221" width="12.8704" height="27.7407" rx="4" stroke="#074264" stroke-width="2"/>
<circle cx="41.232" cy="20.9536" r="19.9537" stroke="#074264" stroke-width="2"/>
<path d="M36.5 26.3607C41.2321 31.0922 53.3968 23.657 38.5265 19.6014C35.1468 16.8977 41.2291 11.4908 45.2846 16.2225" stroke="#074264" stroke-width="2" stroke-linecap="round"/>
<path d="M41.2314 10.8146L41.2314 14.1943M41.2314 32.4443L41.2314 28.3887" stroke="#074264" stroke-width="2" stroke-linecap="round"/>
<path d="M57.4539 64.8888C70.2965 53.398 43.9354 55.4258 33.1212 52.0462C22.9817 52.0462 19.602 54.7498 12.8428 58.8054" stroke="#074264" stroke-width="2"/>
<path d="M60.8335 58.1299C106.796 29.065 64.2131 77.7309 41.9076 77.7312C24.3335 71.648 16.8983 75.0275 12.8428 77.7312" stroke="#074264" stroke-width="2"/>
<path d="M32.1572 64.6069C31.6282 64.7655 31.328 65.323 31.4867 65.852C31.6454 66.381 32.2029 66.6812 32.7319 66.5225L32.1572 64.6069ZM39.2039 63.5371L39.2455 62.5379L39.0776 62.5309L38.9166 62.5792L39.2039 63.5371ZM55.426 64.2128L55.3844 65.212L55.4052 65.2128L55.426 65.2128L55.426 64.2128ZM32.7319 66.5225L39.4913 64.4949L38.9166 62.5792L32.1572 64.6069L32.7319 66.5225ZM39.1623 64.5362L55.3844 65.212L55.4676 63.2137L39.2455 62.5379L39.1623 64.5362ZM55.426 65.2128L58.8056 65.2128L58.8056 63.2128L55.426 63.2128L55.426 65.2128Z" fill="#074264"/>
</svg>
