<svg width="97" height="85" viewBox="0 0 97 85" fill="none" xmlns="http://www.w3.org/2000/svg">
<path d="M48.3504 19.2508C34.899 6.31056 22.4671 6.68234 14.1206 15.3586C3.73938 25.3336 9.14652 39.5281 24.6928 53.7226" stroke="#074264" stroke-width="2"/>
<path d="M72.0085 55.0743C89.0099 40.1214 90.0848 23.9676 81.7139 15.3149C73.3429 6.66223 60.4141 6.27216 46.9992 19.2503" stroke="#074264" stroke-width="2"/>
<path d="M50.3787 45.6118C56.0296 50.9366 70.6563 63.1861 66.6008 67.9173C61.8693 70.6213 50.6223 57.02 44.9713 51.6952" stroke="#074264" stroke-width="2" stroke-linecap="round"/>
<path d="M72.2941 62.5657L72.7414 63.4601L72.848 63.4068L72.9391 63.3299L72.2941 62.5657ZM51.3505 45.6159C50.9485 45.2371 50.3156 45.2559 49.9369 45.6579C49.5581 46.0598 49.5769 46.6927 49.9789 47.0715L51.3505 45.6159ZM48.341 33.4961C51.2676 36.2538 58.5713 42.2119 64.4894 48.3112C67.4369 51.3489 69.938 54.3235 71.3063 56.8324C71.9923 58.0901 72.346 59.1465 72.3859 59.9826C72.4233 60.7669 72.1899 61.3451 71.6491 61.8016L72.9391 63.3299C74.0167 62.4204 74.4466 61.2093 74.3836 59.8874C74.323 58.6173 73.8126 57.2506 73.0622 55.8747C71.5577 53.1163 68.8969 49.9815 65.9248 46.9184C60.0037 40.8162 52.4369 34.6076 49.7126 32.0405L48.341 33.4961ZM71.8468 61.6713C71.6262 61.7817 71.2594 61.836 70.66 61.6957C70.0645 61.5563 69.3377 61.2466 68.4924 60.7661C66.8037 59.8062 64.8162 58.2665 62.7335 56.4571C58.552 52.8246 54.2374 48.3362 51.3505 45.6159L49.9789 47.0715C52.7429 49.676 57.2152 54.3126 61.4218 57.967C63.5331 59.8011 65.64 61.4452 67.5041 62.5048C68.4352 63.0341 69.3493 63.443 70.2042 63.6431C71.0552 63.8423 71.9481 63.8568 72.7414 63.4601L71.8468 61.6713Z" fill="#074264"/>
<path d="M54.4079 25.244C48.8132 31.1957 36.1849 47.6391 30.5117 41.9149C26.046 36.1484 41.6888 24.8402 47.2835 18.8885" stroke="#074264" stroke-width="2" stroke-linecap="round"/>
<path d="M38.4964 57.8346C44.1473 63.1594 58.774 75.4089 54.7185 80.1401C51.7302 82.1116 50.3773 78.7323 49.7016 78.056" stroke="#074264" stroke-width="2" stroke-linecap="round"/>
<path d="M43.9044 52.4269C49.5553 57.7517 65.2488 69.9444 60.1265 74.7324C55.7858 77.3796 44.1479 63.8352 38.497 58.5103" stroke="#074264" stroke-width="2" stroke-linecap="round"/>
<rect x="38.9656" y="63.2477" width="8.81376" height="10.2899" rx="2.5" transform="rotate(46.3958 38.9656 63.2477)" stroke="#074264" stroke-width="2"/>
<rect x="33.5583" y="57.8403" width="8.81376" height="10.2899" rx="2.5" transform="rotate(46.3958 33.5583 57.8403)" stroke="#074264" stroke-width="2"/>
<rect x="28.1511" y="51.081" width="8.81376" height="10.2899" rx="2.5" transform="rotate(46.3958 28.1511 51.081)" stroke="#074264" stroke-width="2"/>
<rect x="45.7253" y="70.007" width="8.81376" height="10.2899" rx="2.5" transform="rotate(46.3958 45.7253 70.007)" stroke="#074264" stroke-width="2"/>
<path d="M73.3589 29.3894C73.3589 33.1224 67.609 36.1487 60.5163 36.1487C53.4235 36.1487 50.3774 34.7968 48.3496 32.0931" stroke="#074264" stroke-width="2" stroke-linecap="round"/>
</svg>
