<svg width="21" height="26" viewBox="0 0 21 26" fill="none" xmlns="http://www.w3.org/2000/svg">
<path d="M17.5178 0.5C18.7189 0.500175 19.8858 1.79387 19.886 3.6582C19.886 5.52271 18.719 6.81721 17.5178 6.81738C16.3166 6.81738 15.1497 5.52284 15.1497 3.6582C15.1498 1.79374 16.3167 0.5 17.5178 0.5Z" stroke="#074264"/>
<path d="M3.65625 9.64648C4.85732 9.64666 6.02427 10.9404 6.02441 12.8047C6.02441 14.6692 4.85739 15.9637 3.65625 15.9639C2.45502 15.9639 1.28809 14.6693 1.28809 12.8047C1.28823 10.9402 2.4551 9.64648 3.65625 9.64648Z" stroke="#074264"/>
<path d="M17.5178 18.793C18.7189 18.7931 19.8858 20.0868 19.886 21.9512C19.886 23.8157 18.719 25.1102 17.5178 25.1104C16.3166 25.1104 15.1497 23.8158 15.1497 21.9512C15.1498 20.0867 16.3167 18.793 17.5178 18.793Z" stroke="#074264"/>
<line y1="-0.5" x2="10.9388" y2="-0.5" transform="matrix(0.830229 -0.557423 0.381393 0.924413 6.0459 11.5859)" stroke="#074264"/>
<line y1="-0.5" x2="11.678" y2="-0.5" transform="matrix(0.818608 0.574353 -0.395914 0.918288 5.56787 14.6348)" stroke="#074264"/>
</svg>
