<svg width="23" height="25" viewBox="0 0 23 25" fill="none" xmlns="http://www.w3.org/2000/svg">
<path d="M16.6122 8.63265L18.5977 8.38446C19.5822 8.26141 20.5517 8.70512 21.102 9.53061V9.53061L21.1773 9.64349C21.7013 10.4295 21.8694 11.4 21.6403 12.3164L21.5948 12.4981C21.5657 12.6147 21.5239 12.7277 21.4702 12.8351L21.3601 13.0553C21.1976 13.3802 21.1976 13.7626 21.3601 14.0875V14.0875C21.4833 14.3339 21.5143 14.6163 21.4475 14.8836L21.1965 15.8876C21.1337 16.1385 21.102 16.3961 21.102 16.6547V16.8028C21.102 17.3306 20.9458 17.8466 20.653 18.2857L20.5597 18.4257C20.3278 18.7736 20.2041 19.1823 20.2041 19.6003V19.6003C20.2041 20.0585 20.0555 20.5043 19.7806 20.8708L19.4156 21.3575C19.0483 21.8471 18.5721 22.2445 18.0247 22.5183L17.7196 22.6708C17.2843 22.8884 16.813 23.0248 16.3288 23.0732L13.5177 23.3544C12.8955 23.4166 12.2674 23.3321 11.6838 23.1076L8.1504 21.7486C7.2695 21.4098 6.27627 21.5479 5.52122 22.1142L5.48872 22.1386C5.12833 22.4088 4.70363 22.5804 4.25662 22.6363V22.6363C2.7116 22.8294 1.34692 21.6247 1.34692 20.0677V13.5306C1.34692 11.3215 3.13779 9.53061 5.34692 9.53061H5.5268C6.58767 9.53061 7.60509 9.10919 8.35523 8.35904L9.41855 7.29573C9.72255 6.99172 9.97556 6.64069 10.1678 6.25615L10.3593 5.87327C10.633 5.32583 10.7755 4.72217 10.7755 4.1101V3.69388C10.7755 3.111 10.9645 2.54385 11.3143 2.07755V2.07755C11.823 1.39922 12.6215 1 13.4694 1V1C14.3173 1 15.1157 1.39922 15.6245 2.07755L15.7429 2.23545C16.0196 2.60441 16.2102 3.03066 16.3006 3.4829L16.5613 4.78599C16.5952 4.95546 16.6122 5.12786 16.6122 5.30069V5.30069C16.6122 5.99672 16.3357 6.66426 15.8436 7.15643L15.7543 7.24572C15.4327 7.56728 15.1904 7.9593 15.0466 8.39072L14.8163 9.08163" stroke="#074264" stroke-width="2"/>
<path d="M20.1035 8.75879L14.8219 8.89325" stroke="#074264" stroke-width="2" stroke-linecap="round"/>
<path d="M21.7378 12.4785L20.6531 12.445" stroke="#074264" stroke-linecap="round"/>
<path d="M21.4236 16.0703L20.3389 16.0368" stroke="#074264" stroke-linecap="round"/>
<path d="M20.6531 18.7637L19.5684 18.7301" stroke="#074264" stroke-linecap="round"/>
<line x1="16.6369" y1="5.97057" x2="15.7463" y2="7.38776" stroke="#074264" stroke-width="2" stroke-linecap="round"/>
<rect y="9.08203" width="5.38775" height="14.3673" rx="2" fill="#074264"/>
<ellipse cx="2.91835" cy="20.0814" rx="1.12245" ry="1.12245" fill="#FEFEFE" fill-opacity="0.996078"/>
</svg>
