<svg width="25" height="25" viewBox="0 0 25 25" fill="none" xmlns="http://www.w3.org/2000/svg">
<path d="M19.7239 16.9879L19.2517 17.6968C19.1673 17.8235 19.07 17.941 18.9614 18.0476C18.6602 18.3429 18.2803 18.5454 17.8672 18.6307L17.4324 18.7205C16.9004 18.8304 16.3509 18.8221 15.8225 18.6961L15 18.5L14.6926 18.3996C13.6542 18.0604 12.6783 17.5533 11.8039 16.8986L11.6988 16.8199C11.3153 16.5328 10.953 16.2185 10.6146 15.8795L9.62441 14.8874L8 13L7.03418 11.5167C6.76288 11.1 6.56266 10.6412 6.44169 10.159C6.2336 9.32938 6.26673 8.45763 6.53719 7.64624L6.62305 7.38867L6.94163 6.43315C7.05928 6.0803 7.29115 5.77673 7.60062 5.5704C8.20897 5.16478 9.01026 5.20125 9.57925 5.66045L9.82623 5.85976C9.94175 5.95299 10.0471 6.05818 10.1405 6.17357L10.8334 7.02967C11.0207 7.2611 11.1229 7.5498 11.1229 7.84753C11.1229 8.19393 10.9846 8.52601 10.7388 8.77007L10.6114 8.89659C9.98037 9.52306 9.92653 10.5257 10.4868 11.2161L11.1229 12L12.5 13.5L13.3827 14.3827C13.4608 14.4608 13.5443 14.5333 13.6327 14.5995L14.4215 15.1911C15.0172 15.6379 15.8621 15.5172 16.3089 14.9215C16.7069 14.3908 17.4318 14.2286 18.0181 14.5389L19.2715 15.2025C19.5002 15.3236 19.6854 15.5131 19.8011 15.7446C20.0002 16.1429 19.9707 16.6173 19.7239 16.9879Z" stroke="#D9D9D9" stroke-width="1.2"/>
<circle cx="12.5" cy="12.5" r="12" stroke="#D9D9D9"/>
</svg>
