<svg width="40" height="40" viewBox="0 0 40 40" fill="none" xmlns="http://www.w3.org/2000/svg">
<circle cx="20" cy="20" r="19.5" stroke="#D9D9D9"/>
<g clip-path="url(#clip0_644_6475)">
<path d="M24.6715 31.3357H14.3281C12.6938 31.334 11.127 30.684 9.97138 29.5284C8.81578 28.3728 8.1658 26.806 8.16406 25.1717V14.8283C8.1658 13.194 8.81578 11.6272 9.97138 10.4716C11.127 9.31602 12.6938 8.66605 14.3281 8.66431H24.6715C26.3058 8.66605 27.8726 9.31602 29.0282 10.4716C30.1838 11.6272 30.8338 13.194 30.8355 14.8283V25.1717C30.8338 26.806 30.1838 28.3728 29.0282 29.5284C27.8726 30.684 26.3058 31.334 24.6715 31.3357ZM14.3281 10.3072C13.1295 10.3089 11.9806 10.7858 11.1331 11.6333C10.2855 12.4808 9.80866 13.6298 9.80692 14.8283V25.1717C9.80866 26.3703 10.2855 27.5192 11.1331 28.3667C11.9806 29.2143 13.1295 29.6911 14.3281 29.6929H24.6715C25.87 29.6911 27.019 29.2143 27.8665 28.3667C28.714 27.5192 29.1909 26.3703 29.1926 25.1717V14.8283C29.1909 13.6298 28.714 12.4808 27.8665 11.6333C27.019 10.7858 25.87 10.3089 24.6715 10.3072H14.3281Z" fill="#074264"/>
<path d="M19.5002 25.934C18.3305 25.934 17.187 25.5872 16.2144 24.9373C15.2418 24.2874 14.4838 23.3638 14.0361 22.2831C13.5885 21.2024 13.4714 20.0132 13.6996 18.8659C13.9278 17.7187 14.4911 16.6649 15.3182 15.8377C16.1453 15.0106 17.1991 14.4473 18.3464 14.2191C19.4937 13.9909 20.6828 14.108 21.7635 14.5557C22.8442 15.0033 23.7679 15.7614 24.4178 16.734C25.0676 17.7066 25.4145 18.85 25.4145 20.0198C25.4145 21.5883 24.7914 23.0926 23.6823 24.2018C22.5731 25.3109 21.0688 25.934 19.5002 25.934ZM19.5002 15.7286C18.6499 15.7247 17.8175 15.9736 17.1088 16.4436C16.4001 16.9136 15.8471 17.5836 15.5198 18.3685C15.1926 19.1534 15.106 20.0178 15.2709 20.852C15.4359 21.6863 15.8449 22.4527 16.4463 23.054C17.0476 23.6553 17.814 24.0644 18.6482 24.2294C19.4825 24.3943 20.3469 24.3077 21.1318 23.9804C21.9167 23.6532 22.5867 23.1002 23.0567 22.3915C23.5267 21.6828 23.7756 20.8504 23.7717 20C23.7648 18.8693 23.3125 17.7869 22.513 16.9873C21.7134 16.1877 20.631 15.7355 19.5002 15.7286Z" fill="#074264"/>
<path d="M25.4276 14.9663C25.689 14.9663 25.9398 14.8624 26.1246 14.6776C26.3095 14.4927 26.4133 14.242 26.4133 13.9806C26.4133 13.7192 26.3095 13.4684 26.1246 13.2836C25.9398 13.0987 25.689 12.9949 25.4276 12.9949C25.1662 12.9949 24.9155 13.0987 24.7306 13.2836C24.5457 13.4684 24.4419 13.7192 24.4419 13.9806C24.4419 14.242 24.5457 14.4927 24.7306 14.6776C24.9155 14.8624 25.1662 14.9663 25.4276 14.9663Z" fill="#074264"/>
</g>
<defs>
<clipPath id="clip0_644_6475">
<rect width="23" height="23" fill="white" transform="translate(8 8.5)"/>
</clipPath>
</defs>
</svg>
