<svg width="23" height="23" viewBox="0 0 23 23" fill="none" xmlns="http://www.w3.org/2000/svg">
<g clip-path="url(#clip0_64_3764)">
<path d="M16.6715 22.8357H6.32806C4.6938 22.834 3.12698 22.184 1.97138 21.0284C0.81578 19.8728 0.165802 18.306 0.164062 16.6717V6.32831C0.165802 4.69405 0.81578 3.12722 1.97138 1.97162C3.12698 0.816024 4.6938 0.166046 6.32806 0.164307H16.6715C18.3058 0.166046 19.8726 0.816024 21.0282 1.97162C22.1838 3.12722 22.8338 4.69405 22.8355 6.32831V16.6717C22.8338 18.306 22.1838 19.8728 21.0282 21.0284C19.8726 22.184 18.3058 22.834 16.6715 22.8357ZM6.32806 1.80716C5.12951 1.8089 3.98055 2.28579 3.13305 3.1333C2.28555 3.9808 1.80866 5.12976 1.80692 6.32831V16.6717C1.80866 17.8703 2.28555 19.0192 3.13305 19.8667C3.98055 20.7142 5.12951 21.1911 6.32806 21.1929H16.6715C17.87 21.1911 19.019 20.7142 19.8665 19.8667C20.714 19.0192 21.1909 17.8703 21.1926 16.6717V6.32831C21.1909 5.12976 20.714 3.9808 19.8665 3.1333C19.019 2.28579 17.87 1.8089 16.6715 1.80716H6.32806Z" fill="#FEFEFE" fill-opacity="0.996078"/>
<path d="M11.5002 17.434C10.3305 17.434 9.18702 17.0872 8.21442 16.4373C7.24183 15.7874 6.48378 14.8638 6.03614 13.7831C5.5885 12.7024 5.47138 11.5132 5.69958 10.3659C5.92779 9.21868 6.49107 8.16485 7.31819 7.33773C8.14532 6.5106 9.19915 5.94732 10.3464 5.71911C11.4937 5.49091 12.6828 5.60803 13.7635 6.05567C14.8442 6.50331 15.7679 7.26136 16.4178 8.23396C17.0676 9.20656 17.4145 10.35 17.4145 11.5198C17.4145 13.0883 16.7914 14.5926 15.6823 15.7018C14.5731 16.8109 13.0688 17.434 11.5002 17.434ZM11.5002 7.22861C10.6499 7.22472 9.81749 7.47357 9.10881 7.94358C8.40012 8.4136 7.84706 9.08358 7.51983 9.86848C7.1926 10.6534 7.10596 11.5178 7.27091 12.352C7.43586 13.1863 7.84495 13.9527 8.44626 14.554C9.04757 15.1553 9.81399 15.5644 10.6482 15.7294C11.4825 15.8943 12.3469 15.8077 13.1318 15.4804C13.9167 15.1532 14.5867 14.6002 15.0567 13.8915C15.5267 13.1828 15.7756 12.3504 15.7717 11.5C15.7648 10.3693 15.3125 9.28686 14.513 8.48731C13.7134 7.68775 12.631 7.23551 11.5002 7.22861Z" fill="#FEFEFE" fill-opacity="0.996078"/>
<path d="M17.4276 6.4663C17.689 6.4663 17.9398 6.36245 18.1246 6.17759C18.3095 5.99274 18.4133 5.74201 18.4133 5.48059C18.4133 5.21916 18.3095 4.96844 18.1246 4.78358C17.9398 4.59872 17.689 4.49487 17.4276 4.49487C17.1662 4.49487 16.9155 4.59872 16.7306 4.78358C16.5457 4.96844 16.4419 5.21916 16.4419 5.48059C16.4419 5.74201 16.5457 5.99274 16.7306 6.17759C16.9155 6.36245 17.1662 6.4663 17.4276 6.4663Z" fill="#FEFEFE" fill-opacity="0.996078"/>
</g>
<defs>
<clipPath id="clip0_64_3764">
<rect width="23" height="23" fill="white"/>
</clipPath>
</defs>
</svg>
