<svg width="40" height="40" viewBox="0 0 40 40" fill="none" xmlns="http://www.w3.org/2000/svg">
<circle cx="20" cy="20" r="19.5" stroke="#D9D9D9"/>
<g clip-path="url(#clip0_644_6457)">
<path d="M13.5465 7.19995C12.187 7.19995 11.2002 8.34108 11.2002 9.91311C11.2002 11.4841 12.1674 12.6244 13.4997 12.6244C14.1907 12.6244 14.7861 12.3518 15.2217 11.8358C15.6394 11.3408 15.8698 10.658 15.8693 9.90068C15.8388 8.31056 14.8834 7.19995 13.5465 7.19995Z" fill="#074264"/>
<path d="M14.6146 11.0764C14.3448 11.3961 13.9589 11.565 13.4995 11.565C12.658 11.565 12.0703 10.8858 12.0703 9.91304C12.0703 8.92398 12.6636 8.25928 13.5462 8.25928C14.4094 8.25928 14.9792 8.91339 14.9988 9.91329C14.9988 10.3698 14.8624 10.7828 14.6146 11.0764Z" fill="#FEFEFE" fill-opacity="0.996078"/>
<path d="M15.5291 13.5193H11.6177V31.0229H15.5291V13.5193Z" fill="#074264"/>
<path d="M14.6585 14.5789H12.4878V29.9636H14.6585V14.5789Z" fill="#FEFEFE" fill-opacity="0.996078"/>
<path d="M25.8428 13.5193C24.029 13.5193 22.9186 14.2812 22.2752 14.9979L22.1528 13.5193H17.7275V31.0229H22.0614V21.8232C22.0614 21.427 22.1931 20.6043 22.276 20.387C22.7996 19.0144 23.5059 19.0144 24.5755 19.0144C25.8075 19.0144 26.8483 20.4206 26.8483 22.085V31.0229H31.2V21.1332C31.2 15.9019 28.4228 13.5193 25.8428 13.5193Z" fill="#074264"/>
<path d="M30.3299 29.9636H27.7189V22.0852C27.7189 19.8464 26.2795 17.9552 24.5758 17.9552C23.4828 17.9552 22.244 17.9552 21.4867 19.9413C21.3303 20.3517 21.1913 21.3356 21.1913 21.8234V29.9636H18.5981V14.5789H21.366L21.5436 16.7212H22.2567L22.3842 16.4708C22.6745 15.9021 23.5924 14.5789 25.8431 14.5789C28.004 14.5789 30.3299 16.6299 30.3299 21.1334L30.3299 29.9636Z" fill="#FEFEFE" fill-opacity="0.996078"/>
</g>
<defs>
<clipPath id="clip0_644_6457">
<rect width="20" height="28.5714" fill="white" transform="translate(11.2002 7.19995)"/>
</clipPath>
</defs>
</svg>
