<svg width="20" height="29" viewBox="0 0 20 29" fill="none" xmlns="http://www.w3.org/2000/svg">
<path d="M2.34627 0C0.986782 0 0 1.14113 0 2.71315C0 4.28415 0.967232 5.42449 2.29952 5.42449C2.99053 5.42449 3.5859 5.15189 4.0215 4.63589C4.43924 4.14085 4.66958 3.45804 4.66915 2.70073C4.63856 1.11061 3.68323 0 2.34627 0Z" fill="#FEFEFE" fill-opacity="0.996078"/>
<path d="M3.41442 3.87657C3.14456 4.19625 2.75869 4.36515 2.29929 4.36515C1.45785 4.36515 0.870117 3.68596 0.870117 2.71321C0.870117 1.72415 1.46337 1.05945 2.34604 1.05945C3.20916 1.05945 3.77905 1.71356 3.7986 2.71346C3.7986 3.16996 3.66218 3.58301 3.41442 3.87657Z" fill="#074264"/>
<path d="M4.32891 6.31934H0.41748V23.8229H4.32891V6.31934Z" fill="#FEFEFE" fill-opacity="0.996078"/>
<path d="M3.45835 7.37878H1.2876V22.7636H3.45835V7.37878Z" fill="#074264"/>
<path d="M14.6426 6.31934C12.8288 6.31934 11.7184 7.08129 11.075 7.79799L10.9526 6.31934H6.52734V23.8229H10.8612V14.6233C10.8612 14.227 10.9929 13.4043 11.0758 13.187C11.5994 11.8144 12.3057 11.8144 13.3753 11.8144C14.6073 11.8144 15.6481 13.2207 15.6481 14.885V23.8229H19.9998V13.9332C19.9998 8.70195 17.2226 6.31934 14.6426 6.31934Z" fill="#FEFEFE" fill-opacity="0.996078"/>
<path d="M19.1297 22.7636H16.5187V14.8851C16.5187 12.6463 15.0793 10.7551 13.3756 10.7551C12.2826 10.7551 11.0438 10.7551 10.2865 12.7412C10.1301 13.1517 9.99113 14.1355 9.99113 14.6233V22.7636H7.39795V7.37878H10.1658L10.3434 9.52111H11.0565L11.184 9.27075C11.4743 8.702 12.3922 7.37878 14.6429 7.37878C16.8038 7.37878 19.1297 9.42982 19.1297 13.9333L19.1297 22.7636Z" fill="#074264"/>
</svg>
