<svg width="40" height="42" viewBox="0 0 40 42" fill="none" xmlns="http://www.w3.org/2000/svg">
<circle cx="20" cy="20" r="19.5" stroke="#D9D9D9"/>
<path d="M15.0996 7.6001H25.0996C29.2417 7.6001 32.5996 10.958 32.5996 15.1001V21.9233C32.5996 25.6031 29.6163 28.5864 25.9365 28.5864H25.4912C23.6493 28.5864 22.1064 29.9815 21.9209 31.814C21.8636 32.3786 21.621 32.7616 21.3086 33.0044C20.9882 33.2531 20.5645 33.3763 20.124 33.3579C19.2431 33.3211 18.3993 32.7344 18.2891 31.6333C18.1005 29.7473 16.4818 28.2976 14.5781 28.356L14.2441 28.3667C10.608 28.4785 7.59961 25.5612 7.59961 21.9233V15.1001C7.59961 10.958 10.9575 7.6001 15.0996 7.6001Z" stroke="#074264"/>
<circle cx="13.7002" cy="18.5" r="2" stroke="#074264"/>
<circle cx="20" cy="18.5" r="2" stroke="#074264"/>
<circle cx="26.2998" cy="18.5" r="2" stroke="#074264"/>
</svg>
