<svg width="530" height="457" viewBox="0 0 530 457" fill="none" xmlns="http://www.w3.org/2000/svg">
<rect width="529" height="457" transform="translate(0.5)" fill="#FEFEFE"/>
<circle cx="369.332" cy="96.2347" r="33.8285" stroke="#1C5A79" stroke-width="8"/>
<path d="M361.205 50H375.776V56.7251L373.393 56.3279C372.741 56.2193 372.081 56.1646 371.42 56.1646H368.491H364.568L361.205 56.7251V50Z" fill="#1C5A79"/>
<path d="M337.107 59.2015L349.909 52.242L353.121 58.1503L350.838 58.9396C350.213 59.1555 349.607 59.4227 349.027 59.7384L346.453 61.1377L343.006 63.0115L340.32 65.1099L337.107 59.2015Z" fill="#1C5A79"/>
<path d="M379.238 143.59L364.669 143.805L364.569 137.081L366.958 137.443C367.611 137.542 368.272 137.587 368.933 137.577L371.862 137.533L375.785 137.475L379.139 136.865L379.238 143.59Z" fill="#1C5A79"/>
<path d="M355.283 143.077L342.152 136.761L345.067 130.701L347.042 132.091C347.583 132.472 348.154 132.807 348.749 133.094L351.39 134.363L354.925 136.064L358.198 137.016L355.283 143.077Z" fill="#1C5A79"/>
<path d="M321.977 79.7521L328.676 66.8127L334.648 69.9048L333.2 71.8382C332.804 72.3673 332.452 72.9281 332.148 73.5151L330.801 76.1168L328.997 79.6005L327.949 82.8442L321.977 79.7521Z" fill="#1C5A79"/>
<path d="M321.244 108.342L319.733 93.8496L326.422 93.1523L326.274 95.5635C326.234 96.2233 326.248 96.8852 326.316 97.5426L326.62 100.457L327.027 104.358L327.933 107.645L321.244 108.342Z" fill="#1C5A79"/>
<path d="M332.219 130.468L325.339 117.624L331.267 114.448L332.042 116.736C332.254 117.363 332.518 117.97 332.83 118.553L334.213 121.135L336.065 124.593L338.147 127.293L332.219 130.468Z" fill="#1C5A79"/>
<path d="M403.027 133.923L389.975 140.399L386.986 134.375L389.297 133.672C389.929 133.479 390.544 133.235 391.137 132.941L393.761 131.639L397.275 129.895L400.038 127.899L403.027 133.923Z" fill="#1C5A79"/>
<path d="M390.465 52.8577L403.351 59.6596L400.212 65.6069L398.29 64.1434C397.764 63.7429 397.206 63.3866 396.621 63.0781L394.03 61.7104L390.561 59.8791L387.326 58.8051L390.465 52.8577Z" fill="#1C5A79"/>
<path d="M415.707 114.96L408.529 127.64L402.676 124.327L404.196 122.449C404.612 121.935 404.984 121.387 405.31 120.812L406.753 118.263L408.686 114.849L409.855 111.647L415.707 114.96Z" fill="#1C5A79"/>
<path d="M417.232 90.3505L418.2 104.889L411.49 105.336L411.728 102.932C411.793 102.274 411.804 101.612 411.76 100.953L411.565 98.0295L411.305 94.1152L410.522 90.7973L417.232 90.3505Z" fill="#1C5A79"/>
<path d="M409.279 66.8125L415.674 79.9052L409.631 82.8567L408.942 80.5412C408.754 79.9077 408.513 79.2909 408.223 78.6969L406.937 76.0644L405.216 72.5394L403.237 69.764L409.279 66.8125Z" fill="#1C5A79"/>
<circle cx="392.939" cy="185.104" r="22.7673" stroke="#726E66" stroke-width="7"/>
<path d="M396.915 153.5V157.079L396.142 156.95C395.463 156.837 394.775 156.78 394.087 156.78H389.591L389.55 156.787L387.797 157.079V153.5H396.915Z" fill="#D9D9D9" stroke="#726E66"/>
<path d="M379.251 155.235L380.961 158.379L380.22 158.635C379.569 158.86 378.938 159.139 378.334 159.468L374.383 161.615L374.351 161.641L372.95 162.734L371.241 159.59L379.251 155.235Z" fill="#D9D9D9" stroke="#726E66"/>
<path d="M390.194 217.629L390.141 214.05L390.916 214.168C391.597 214.271 392.285 214.317 392.973 214.307L397.469 214.241L397.51 214.233L399.258 213.915L399.311 217.494L390.194 217.629Z" fill="#D9D9D9" stroke="#726E66"/>
<path d="M374.733 213.011L376.284 209.786L376.925 210.237C377.488 210.633 378.083 210.982 378.703 211.281L382.755 213.229L382.795 213.241L384.501 213.738L382.95 216.963L374.733 213.011Z" fill="#D9D9D9" stroke="#726E66"/>
<path d="M364.923 165.348L368.101 166.993L367.631 167.621C367.219 168.172 366.852 168.756 366.536 169.367L364.468 173.36L364.456 173.4L363.909 175.091L360.731 173.445L364.923 165.348Z" fill="#D9D9D9" stroke="#726E66"/>
<path d="M359.049 183.893L362.609 183.522L362.561 184.305C362.519 184.992 362.533 185.681 362.605 186.366L363.071 190.838L363.082 190.878L363.554 192.591L359.994 192.962L359.049 183.893Z" fill="#D9D9D9" stroke="#726E66"/>
<path d="M363.068 200.161L366.223 198.471L366.474 199.213C366.695 199.865 366.969 200.498 367.294 201.105L369.417 205.068L369.443 205.101L370.528 206.509L367.373 208.199L363.068 200.161Z" fill="#D9D9D9" stroke="#726E66"/>
<path d="M407.498 215.101L405.907 211.895L406.657 211.667C407.316 211.466 407.957 211.212 408.573 210.906L412.601 208.907L412.635 208.883L414.075 207.842L415.666 211.049L407.498 215.101Z" fill="#D9D9D9" stroke="#726E66"/>
<path d="M415.886 159.916L414.215 163.082L413.591 162.607C413.044 162.19 412.462 161.819 411.853 161.497L407.877 159.398L407.838 159.385L406.151 158.825L407.822 155.66L415.886 159.916Z" fill="#D9D9D9" stroke="#726E66"/>
<path d="M419.969 206.23L416.854 204.467L417.348 203.858C417.781 203.322 418.169 202.752 418.508 202.153L420.723 198.241L420.737 198.202L421.347 196.532L424.461 198.296L419.969 206.23Z" fill="#D9D9D9" stroke="#726E66"/>
<path d="M426.341 190.649L422.77 190.886L422.847 190.106C422.915 189.421 422.926 188.732 422.88 188.045L422.582 183.559L422.572 183.518L422.164 181.788L425.735 181.551L426.341 190.649Z" fill="#D9D9D9" stroke="#726E66"/>
<path d="M424.45 173.536L421.234 175.107L421.01 174.355C420.814 173.695 420.563 173.053 420.261 172.434L418.288 168.395L418.264 168.361L417.232 166.914L420.448 165.343L424.45 173.536Z" fill="#D9D9D9" stroke="#726E66"/>
<circle cx="166.287" cy="105.597" r="42.1252" stroke="#B22035" stroke-width="10"/>
<path d="M156.162 48H174.314V56.3778L171.105 55.8429C170.453 55.7343 169.793 55.6797 169.132 55.6797H165.238H160.351L156.162 56.3778V48Z" fill="#B22035"/>
<path d="M126.143 59.4627L142.09 50.7927L146.092 58.1532L143.017 59.2161C142.392 59.432 141.786 59.6992 141.205 60.0149L137.784 61.8748L133.491 64.209L130.144 66.8231L126.143 59.4627Z" fill="#B22035"/>
<path d="M178.627 164.59L160.477 164.859L160.353 156.482L163.57 156.969C164.223 157.068 164.884 157.113 165.545 157.103L169.438 157.046L174.325 156.974L178.503 156.214L178.627 164.59Z" fill="#B22035"/>
<path d="M148.785 163.951L132.427 156.084L136.058 148.534L138.718 150.407C139.259 150.787 139.83 151.123 140.425 151.409L143.935 153.097L148.339 155.215L152.416 156.401L148.785 163.951Z" fill="#B22035"/>
<path d="M107.293 85.0642L115.639 68.9448L123.079 72.7968L121.128 75.4008C120.732 75.9298 120.38 76.4907 120.076 77.0776L118.286 80.5355L116.039 84.8754L114.733 88.9162L107.293 85.0642Z" fill="#B22035"/>
<path d="M106.381 120.68L104.499 102.626L112.832 101.758L112.632 105.005C112.592 105.665 112.606 106.327 112.674 106.984L113.078 110.857L113.585 115.718L114.714 119.812L106.381 120.68Z" fill="#B22035"/>
<path d="M120.053 148.244L111.482 132.243L118.867 128.287L119.911 131.369C120.123 131.995 120.387 132.602 120.699 133.185L122.537 136.618L124.845 140.926L127.438 144.289L120.053 148.244Z" fill="#B22035"/>
<path d="M208.262 152.548L192.001 160.616L188.278 153.111L191.39 152.164C192.023 151.971 192.638 151.727 193.23 151.433L196.718 149.702L201.096 147.53L204.538 145.043L208.262 152.548Z" fill="#B22035"/>
<path d="M192.613 51.5598L208.666 60.0333L204.755 67.4423L202.167 65.4711C201.641 65.0707 201.083 64.7144 200.498 64.4058L197.055 62.5881L192.733 60.3068L188.702 58.9688L192.613 51.5598Z" fill="#B22035"/>
<path d="M224.059 128.924L215.116 144.72L207.825 140.593L209.872 138.064C210.288 137.55 210.66 137.003 210.986 136.427L212.904 133.039L215.312 128.786L216.768 124.797L224.059 128.924Z" fill="#B22035"/>
<path d="M225.961 98.2669L227.167 116.379L218.808 116.935L219.128 113.698C219.193 113.04 219.204 112.378 219.16 111.718L218.901 107.833L218.577 102.957L217.602 98.8235L225.961 98.2669Z" fill="#B22035"/>
<path d="M216.053 68.9446L224.019 85.255L216.491 88.9318L215.563 85.8134C215.375 85.1798 215.134 84.563 214.844 83.9691L213.135 80.4702L210.991 76.0789L208.525 72.6214L216.053 68.9446Z" fill="#B22035"/>
<circle cx="270" cy="220.5" r="61.5" stroke="#1C5A79" stroke-width="12"/>
<path d="M281 138.5V149.409L276.562 148.67C275.882 148.557 275.195 148.5 274.507 148.5H261.459L261.418 148.507L256 149.409V138.5H281Z" fill="#074264" stroke="#1C5A79"/>
<path d="M235.142 142.678L240.353 152.263L236.1 153.733C235.449 153.958 234.819 154.236 234.214 154.565L222.75 160.797L222.718 160.823L218.389 164.203L213.178 154.619L235.142 142.678Z" fill="#074264" stroke="#1C5A79"/>
<path d="M262.171 304.876L262.01 293.968L266.459 294.641C267.139 294.744 267.827 294.791 268.516 294.781L281.562 294.588L281.603 294.58L287.007 293.598L287.168 304.506L262.171 304.876Z" fill="#074264" stroke="#1C5A79"/>
<path d="M222.168 292.58L226.896 282.749L230.576 285.339C231.139 285.735 231.734 286.085 232.354 286.383L244.113 292.038L244.152 292.05L249.426 293.585L244.698 303.416L222.168 292.58Z" fill="#074264" stroke="#1C5A79"/>
<path d="M197.669 168.674L207.356 173.69L204.659 177.292C204.246 177.843 203.88 178.427 203.563 179.038L197.564 190.625L197.551 190.664L195.862 195.891L186.174 190.875L197.669 168.674Z" fill="#074264" stroke="#1C5A79"/>
<path d="M182.049 216.69L192.899 215.559L192.624 220.05C192.582 220.737 192.597 221.426 192.668 222.111L194.021 235.089L194.032 235.129L195.491 240.424L184.641 241.555L182.049 216.69Z" fill="#074264" stroke="#1C5A79"/>
<path d="M192.178 258.871L201.795 253.72L203.239 257.982C203.46 258.634 203.734 259.266 204.059 259.873L210.22 271.375L210.245 271.408L213.599 275.758L203.982 280.909L192.178 258.871Z" fill="#074264" stroke="#1C5A79"/>
<path d="M307.06 298.635L302.211 288.863L306.516 287.552C307.174 287.352 307.815 287.097 308.432 286.791L320.12 280.992L320.154 280.968L324.606 277.751L329.455 287.524L307.06 298.635Z" fill="#074264" stroke="#1C5A79"/>
<path d="M330.029 155.444L324.936 165.092L321.356 162.366C320.808 161.949 320.227 161.578 319.618 161.257L308.079 155.166L308.04 155.153L302.827 153.422L307.92 143.774L330.029 155.444Z" fill="#074264" stroke="#1C5A79"/>
<path d="M339.754 275.856L330.261 270.482L333.091 266.984C333.524 266.449 333.912 265.878 334.251 265.279L340.679 253.925L340.693 253.886L342.577 248.726L352.071 254.101L339.754 275.856Z" fill="#074264" stroke="#1C5A79"/>
<path d="M356.67 235.477L345.785 236.202L346.227 231.724C346.295 231.039 346.306 230.349 346.261 229.662L345.394 216.643L345.384 216.603L344.124 211.257L355.009 210.532L356.67 235.477Z" fill="#074264" stroke="#1C5A79"/>
<path d="M352.025 191.132L342.223 195.92L340.939 191.608C340.743 190.948 340.492 190.305 340.19 189.687L334.464 177.963L334.44 177.929L331.251 173.456L341.053 168.669L352.025 191.132Z" fill="#074264" stroke="#1C5A79"/>
<circle cx="270" cy="220.5" r="18.5" fill="#074264"/>
<rect x="265.5" y="170" width="9" height="30" fill="#D9D9D9"/>
<rect x="265.5" y="242" width="9" height="30" fill="#D9D9D9"/>
<rect x="321.508" y="216.093" width="9" height="30" transform="rotate(90.0519 321.508 216.093)" fill="#D9D9D9"/>
<rect x="249.508" y="216.027" width="9" height="30" transform="rotate(90.0519 249.508 216.027)" fill="#D9D9D9"/>
<rect x="305.34" y="184" width="9" height="30" transform="rotate(48.032 305.34 184)" fill="#D9D9D9"/>
<rect x="251.807" y="232.147" width="9" height="30" transform="rotate(48.032 251.807 232.147)" fill="#D9D9D9"/>
<rect x="309.344" y="252.604" width="9" height="30" transform="rotate(133.804 309.344 252.604)" fill="#D9D9D9"/>
<rect x="257.381" y="202.766" width="9" height="30" transform="rotate(133.804 257.381 202.766)" fill="#D9D9D9"/>
<circle cx="166.233" cy="105.733" r="9.79334" fill="#B22035"/>
<rect x="163.852" y="79" width="4.76433" height="15.8811" fill="#D9D9D9"/>
<rect x="163.852" y="117.115" width="4.76433" height="15.8811" fill="#D9D9D9"/>
<rect x="193.5" y="103.4" width="4.76433" height="15.8811" transform="rotate(90.0519 193.5 103.4)" fill="#D9D9D9"/>
<rect x="155.385" y="103.365" width="4.76433" height="15.8811" transform="rotate(90.0519 155.385 103.365)" fill="#D9D9D9"/>
<rect x="184.941" y="86.4112" width="4.76433" height="15.8811" transform="rotate(48.032 184.941 86.4112)" fill="#D9D9D9"/>
<rect x="156.602" y="111.899" width="4.76433" height="15.8811" transform="rotate(48.032 156.602 111.899)" fill="#D9D9D9"/>
<rect x="187.061" y="122.728" width="4.76433" height="15.8811" transform="rotate(133.804 187.061 122.728)" fill="#D9D9D9"/>
<rect x="159.553" y="96.3451" width="4.76433" height="15.8811" transform="rotate(133.804 159.553 96.3451)" fill="#D9D9D9"/>
<ellipse cx="370.303" cy="96.8023" rx="7.25424" ry="7.25424" fill="#074264"/>
<rect x="368.537" y="77" width="3.52909" height="11.7636" fill="#D9D9D9"/>
<rect x="368.537" y="105.233" width="3.52909" height="11.7636" fill="#D9D9D9"/>
<rect x="390.5" y="95.0737" width="3.52909" height="11.7636" transform="rotate(90.0519 390.5 95.0737)" fill="#D9D9D9"/>
<rect x="362.268" y="95.0484" width="3.52909" height="11.7636" transform="rotate(90.0519 362.268 95.0484)" fill="#D9D9D9"/>
<rect x="384.16" y="82.4899" width="3.52909" height="11.7636" transform="rotate(48.032 384.16 82.4899)" fill="#D9D9D9"/>
<rect x="363.168" y="101.37" width="3.52909" height="11.7636" transform="rotate(48.032 363.168 101.37)" fill="#D9D9D9"/>
<rect x="385.73" y="109.39" width="3.52909" height="11.7636" transform="rotate(133.804 385.73 109.39)" fill="#D9D9D9"/>
<rect x="365.354" y="89.848" width="3.52909" height="11.7636" transform="rotate(133.804 365.354 89.848)" fill="#D9D9D9"/>
<circle cx="393.376" cy="185.377" r="4.03396" fill="#D9D9D9" stroke="#726E66"/>
<rect x="392.773" y="173.5" width="1.20571" height="6.35236" fill="#D9D9D9" stroke="#726E66"/>
<rect x="392.773" y="191.145" width="1.20571" height="6.35236" fill="#D9D9D9" stroke="#726E66"/>
<rect x="405.5" y="184.796" width="1.20571" height="6.35236" transform="rotate(90.0519 405.5 184.796)" fill="#D9D9D9" stroke="#726E66"/>
<rect x="387.853" y="184.78" width="1.20571" height="6.35236" transform="rotate(90.0519 387.853 184.78)" fill="#D9D9D9" stroke="#726E66"/>
<rect x="402" y="177.137" width="1.20571" height="6.35236" transform="rotate(48.032 402 177.137)" fill="#D9D9D9" stroke="#726E66"/>
<rect x="388.881" y="188.937" width="1.20571" height="6.35236" transform="rotate(48.032 388.881 188.937)" fill="#D9D9D9" stroke="#726E66"/>
<rect x="402.313" y="193.259" width="1.20571" height="6.35236" transform="rotate(133.804 402.313 193.259)" fill="#D9D9D9" stroke="#726E66"/>
<rect x="389.576" y="181.045" width="1.20571" height="6.35236" transform="rotate(133.804 389.576 181.045)" fill="#D9D9D9" stroke="#726E66"/>
<circle cx="272.089" cy="409.269" r="8.2202" stroke="#65101C" stroke-width="2"/>
<path d="M270.107 398H273.659V399.639C273.113 399.548 272.561 399.503 272.008 399.503H271.883H270.927L270.107 399.639V398Z" fill="#65101C"/>
<path d="M264.234 400.243L267.355 398.547L268.137 399.987C267.615 400.167 267.108 400.391 266.622 400.655L266.512 400.715L265.672 401.171L265.017 401.683L264.234 400.243Z" fill="#65101C"/>
<path d="M274.504 420.811L270.953 420.864L270.929 419.225C271.475 419.308 272.028 419.345 272.581 419.337L272.706 419.335L273.662 419.321L274.48 419.172L274.504 420.811Z" fill="#65101C"/>
<path d="M268.664 420.686L265.464 419.147L266.174 417.67C266.626 417.988 267.104 418.268 267.602 418.508L267.715 418.562L268.577 418.977L269.375 419.209L268.664 420.686Z" fill="#65101C"/>
<path d="M260.547 405.252L262.18 402.098L263.635 402.852C263.304 403.294 263.01 403.763 262.755 404.254L262.698 404.366L262.258 405.215L262.002 406.005L260.547 405.252Z" fill="#65101C"/>
<path d="M260.367 412.22L259.999 408.688L261.629 408.518C261.595 409.07 261.607 409.623 261.665 410.173L261.678 410.298L261.777 411.249L261.997 412.05L260.367 412.22Z" fill="#65101C"/>
<path d="M263.043 417.613L261.366 414.482L262.811 413.709C262.988 414.232 263.209 414.74 263.47 415.228L263.529 415.338L263.981 416.181L264.488 416.839L263.043 417.613Z" fill="#65101C"/>
<path d="M280.301 418.455L277.119 420.034L276.391 418.565C276.92 418.404 277.435 418.2 277.93 417.954L278.042 417.898L278.899 417.473L279.572 416.987L280.301 418.455Z" fill="#65101C"/>
<path d="M277.24 398.697L280.381 400.354L279.616 401.804C279.176 401.469 278.709 401.171 278.22 400.913L278.109 400.854L277.264 400.408L276.475 400.146L277.24 398.697Z" fill="#65101C"/>
<path d="M283.393 413.833L281.643 416.924L280.216 416.116C280.564 415.686 280.876 415.228 281.148 414.747L281.21 414.638L281.681 413.806L281.966 413.026L283.393 413.833Z" fill="#65101C"/>
<path d="M283.764 407.835L284 411.379L282.364 411.487C282.419 410.937 282.427 410.383 282.391 409.832L282.382 409.707L282.319 408.753L282.128 407.944L283.764 407.835Z" fill="#65101C"/>
<path d="M281.826 402.098L283.385 405.289L281.912 406.008C281.754 405.478 281.553 404.962 281.31 404.465L281.255 404.353L280.836 403.494L280.353 402.817L281.826 402.098Z" fill="#65101C"/>
<path d="M253 387.5C256 433 233.972 430 210.5 430C187.028 430 162 434 168 387.5C168 364.028 187.028 345 210.5 345C233.972 345 253 364.028 253 387.5Z" fill="#D9D9D9"/>
<path d="M210.5 346.5C233.144 346.5 251.5 364.856 251.5 387.5V387.55L251.503 387.599C252.994 410.214 248.208 420.056 240.894 424.533C237.152 426.824 232.564 427.841 227.344 428.263C222.105 428.686 216.439 428.5 210.5 428.5C204.542 428.5 198.699 428.749 193.208 428.401C187.738 428.055 182.866 427.123 178.94 424.885C171.333 420.548 166.508 410.787 169.487 387.692L169.5 387.597V387.5C169.5 364.856 187.856 346.5 210.5 346.5Z" stroke="black" stroke-opacity="0.4" stroke-width="3"/>
<rect x="221" y="430" width="4" height="18" fill="#D9D9D9"/>
<rect x="222" y="431" width="2" height="16" stroke="black" stroke-opacity="0.4" stroke-width="2"/>
<rect x="197" y="430" width="4" height="18" fill="#D9D9D9"/>
<rect x="198" y="431" width="2" height="16" stroke="black" stroke-opacity="0.4" stroke-width="2"/>
<path d="M197 448H211.5C213.433 448 215 449.567 215 451.5C215 453.433 213.433 455 211.5 455H200.5C198.567 455 197 453.433 197 451.5V448Z" fill="#828282"/>
<path d="M221 448H235.5C237.433 448 239 449.567 239 451.5C239 453.433 237.433 455 235.5 455H224.5C222.567 455 221 453.433 221 451.5V448Z" fill="#828282"/>
<path d="M202.311 393.811C202.805 393.316 203.585 393.249 204.157 393.652L219.135 404.226L219.516 404.494L219.981 404.5L259.584 404.977L259.545 405.136L259.15 406.713L260.753 406.979L260.876 407H216.551L202.357 394.957C202.01 394.662 201.988 394.133 202.311 393.811Z" fill="#828282" stroke="#828282" stroke-width="3"/>
<path d="M269.5 390L244 365L241 359L244 359.5L275.218 387.504C276.848 388.967 277.259 391.358 276.21 393.281C275.454 394.667 274.055 395.584 272.482 395.724L252.5 397.5V392L269.5 390Z" fill="#828282"/>
<path d="M274.216 388.621C275.328 389.619 275.609 391.25 274.894 392.562C274.378 393.508 273.423 394.134 272.35 394.229L254 395.86V393.333L269.675 391.489L272.788 391.123L270.55 388.929L245.229 364.104L243.881 361.408L274.216 388.621Z" stroke="#828282" stroke-opacity="0.4" stroke-width="3"/>
<ellipse cx="229.192" cy="368.193" rx="5" ry="8" transform="rotate(-45 229.192 368.193)" fill="#FEFEFE"/>
<path d="M223.889 362.889C224.7 362.079 226.013 361.819 227.58 362.18C229.139 362.54 230.868 363.504 232.374 365.011C233.881 366.517 234.845 368.246 235.205 369.805C235.566 371.372 235.306 372.685 234.496 373.496C233.685 374.306 232.371 374.567 230.805 374.205C229.246 373.845 227.517 372.881 226.01 371.375C224.504 369.868 223.54 368.139 223.18 366.58C222.818 365.014 223.079 363.7 223.889 362.889Z" stroke="black" stroke-opacity="0.4"/>
<ellipse cx="217.192" cy="375.193" rx="5" ry="8" transform="rotate(-45 217.192 375.193)" fill="#FEFEFE"/>
<path d="M211.889 369.889C212.7 369.079 214.013 368.819 215.58 369.18C217.139 369.54 218.868 370.504 220.374 372.011C221.881 373.517 222.845 375.246 223.205 376.805C223.566 378.372 223.306 379.685 222.496 380.496C221.685 381.306 220.371 381.567 218.805 381.205C217.246 380.845 215.517 379.881 214.01 378.375C212.504 376.868 211.54 375.139 211.18 373.58C210.818 372.014 211.079 370.7 211.889 369.889Z" stroke="black" stroke-opacity="0.4"/>
<ellipse cx="236.5" cy="389" rx="2.5" ry="2" fill="black"/>
<path d="M236.5 387.5C237.714 387.5 238.5 388.27 238.5 389C238.5 389.73 237.714 390.5 236.5 390.5C235.286 390.5 234.5 389.73 234.5 389C234.5 388.27 235.286 387.5 236.5 387.5Z" stroke="black" stroke-opacity="0.4"/>
<path d="M216.502 370.5C217.417 370.5 218.045 370.898 218.72 371.598C219.065 371.956 219.406 372.374 219.803 372.851C220.184 373.309 220.608 373.808 221.106 374.311C221.58 375.029 222.121 376.09 222.388 376.959C222.527 377.412 222.57 377.745 222.542 377.934C222.537 377.964 222.53 377.984 222.525 377.997C222.519 377.998 222.512 378 222.502 378C220.403 378 218.293 377.537 216.427 375.229C215.959 374.279 215.571 373.002 215.548 371.988C215.536 371.47 215.621 371.086 215.772 370.847C215.901 370.644 216.106 370.5 216.502 370.5Z" fill="black" stroke="black"/>
<path d="M226.578 363.328C227.558 363.065 228.201 363.111 228.884 363.415C229.61 363.738 230.396 364.357 231.637 365.349C232.365 366.324 233.086 367.409 233.557 368.247C233.755 368.598 233.897 368.889 233.981 369.101C232.103 369.527 230.138 369.304 227.839 367.627C227.128 366.818 226.4 365.751 226.091 364.848C225.933 364.384 225.91 364.036 225.981 363.804C226.039 363.617 226.18 363.435 226.578 363.328Z" fill="black" stroke="black"/>
<ellipse cx="271.94" cy="408.941" rx="2.17631" ry="2.17631" fill="#65101C"/>
<rect x="271.41" y="403" width="1.05875" height="3.52915" fill="#65101C"/>
<rect x="271.41" y="411.47" width="1.05875" height="3.52915" fill="#65101C"/>
<rect x="278" y="408.422" width="1.05875" height="3.52915" transform="rotate(90.0519 278 408.422)" fill="#65101C"/>
<rect x="269.529" y="408.415" width="1.05875" height="3.52915" transform="rotate(90.0519 269.529 408.415)" fill="#65101C"/>
<rect x="276.098" y="404.647" width="1.05875" height="3.52915" transform="rotate(48.032 276.098 404.647)" fill="#65101C"/>
<rect x="269.801" y="410.311" width="1.05875" height="3.52915" transform="rotate(48.032 269.801 410.311)" fill="#65101C"/>
<rect x="276.57" y="412.717" width="1.05875" height="3.52915" transform="rotate(133.804 276.57 412.717)" fill="#65101C"/>
<rect x="270.455" y="406.854" width="1.05875" height="3.52915" transform="rotate(133.804 270.455 406.854)" fill="#65101C"/>
<line x1="58" y1="454" x2="458" y2="454" stroke="#D9D9D9" stroke-width="6"/>
</svg>
