<svg width="529" height="162" viewBox="0 0 529 162" fill="none" xmlns="http://www.w3.org/2000/svg">
<g clip-path="url(#clip0_765_9901)">
<rect width="529" height="162" fill="#FEFEFE" fill-opacity="0.996078"/>
<path d="M-1.5 140H598.5" stroke="#D9D9D9" stroke-width="4" stroke-linecap="round"/>
<path d="M221.306 57.6746C266.832 55.1025 263.625 77.1012 263.404 100.572C263.184 124.043 266.948 149.108 220.507 142.671C197.036 142.45 178.187 123.244 178.408 99.7731C178.629 76.302 197.835 57.4539 221.306 57.6746Z" fill="#D9D9D9"/>
<path d="M179.908 99.787C180.121 77.1444 198.649 58.9614 221.292 59.1743L221.341 59.1747L221.39 59.1723C244.019 57.8938 253.815 62.7721 258.224 70.1284C260.479 73.8914 261.453 78.489 261.825 83.7127C262.199 88.9551 261.96 94.6191 261.904 100.558C261.848 106.516 262.042 112.36 261.643 117.848C261.245 123.315 260.268 128.177 257.993 132.082C253.584 139.648 243.779 144.382 220.713 141.185L220.617 141.172L220.521 141.171C197.878 140.958 179.695 122.43 179.908 99.787Z" stroke="black" stroke-opacity="0.4" stroke-width="3"/>
<rect width="4.09346" height="18.4206" transform="matrix(0.00228448 0.999997 0.999997 -0.00228448 261.057 113.618)" fill="#D9D9D9"/>
<rect x="1.0257" y="1.02103" width="2.04673" height="16.3739" transform="matrix(0.00228448 0.999997 0.999997 -0.00228448 261.059 113.616)" stroke="black" stroke-opacity="0.4" stroke-width="2.04673"/>
<rect width="4.09346" height="18.4206" transform="matrix(0.00228448 0.999997 0.999997 -0.00228448 261 89.0586)" fill="#D9D9D9"/>
<rect x="1.0257" y="1.02103" width="2.04673" height="16.3739" transform="matrix(0.00228448 0.999997 0.999997 -0.00228448 261.002 89.0563)" stroke="black" stroke-opacity="0.4" stroke-width="2.04673"/>
<path d="M279.42 89.0166L279.454 103.855C279.458 105.834 281.066 107.433 283.044 107.429C285.022 107.424 286.622 105.817 286.617 103.839L286.592 92.582C286.587 90.6038 284.98 89.0039 283.002 89.0084L279.42 89.0166Z" fill="#828282"/>
<path d="M279.475 113.576L279.509 128.414C279.513 130.393 281.12 131.993 283.098 131.988C285.077 131.984 286.677 130.376 286.672 128.398L286.646 117.141C286.642 115.163 285.035 113.563 283.056 113.568L279.475 113.576Z" fill="#828282"/>
<path d="M235.239 106.041C234.921 105.549 234.169 105.677 234.031 106.246L231.807 115.394L231.799 115.423L231.792 115.452L227.638 129.964L227.47 130.555L226.935 130.857L205.986 142.715L206.029 142.772L206.902 143.874L206.704 144.053L229.433 131.703L235.329 106.556C235.37 106.379 235.338 106.193 235.239 106.041Z" fill="#828282" stroke="#828282" stroke-width="3"/>
<ellipse cx="5.90529" cy="9.44846" rx="5.90529" ry="9.44846" transform="matrix(-0.707107 0.707107 0.707107 0.707107 194.352 105.173)" fill="#FEFEFE" fill-opacity="0.996078"/>
<path d="M190.529 109.702C189.542 110.689 189.236 112.278 189.667 114.146C190.096 116.006 191.246 118.062 193.035 119.852C194.824 121.641 196.881 122.79 198.741 123.219C200.608 123.65 202.197 123.344 203.184 122.357C204.171 121.37 204.478 119.781 204.047 117.913C203.617 116.054 202.468 113.997 200.679 112.207C198.89 110.418 196.833 109.269 194.973 108.84C193.105 108.409 191.517 108.715 190.529 109.702Z" stroke="black" stroke-opacity="0.4"/>
<ellipse cx="5.90529" cy="9.44846" rx="5.90529" ry="9.44846" transform="matrix(-0.707107 0.707107 0.707107 0.707107 202.617 91)" fill="#FEFEFE" fill-opacity="0.996078"/>
<path d="M198.795 95.5292C197.808 96.5164 197.502 98.1049 197.933 99.9728C198.362 101.833 199.511 103.889 201.3 105.679C203.089 107.468 205.147 108.617 207.006 109.046C208.874 109.477 210.463 109.171 211.45 108.184C212.437 107.197 212.743 105.608 212.312 103.74C211.883 101.881 210.734 99.8236 208.945 98.0345C207.155 96.2453 205.098 95.0959 203.239 94.6667C201.371 94.2357 199.782 94.542 198.795 95.5292Z" stroke="black" stroke-opacity="0.4"/>
<ellipse cx="2.95264" cy="2.36212" rx="2.95264" ry="2.36212" transform="matrix(-4.37114e-08 1 1 4.37114e-08 219.068 121.708)" fill="#021825"/>
<path d="M219.568 124.661C219.569 126.125 220.501 127.113 221.431 127.113C222.361 127.113 223.293 126.125 223.293 124.661C223.293 123.196 222.361 122.208 221.431 122.208C220.501 122.208 219.568 123.196 219.568 124.661Z" stroke="black" stroke-opacity="0.4"/>
<path d="M199.494 100.995C199.973 103.245 201.144 104.695 203.777 106.583L203.777 106.584C204.623 107.147 205.959 107.791 207.065 108.102C207.629 108.261 208.069 108.314 208.34 108.272C208.468 108.252 208.509 108.219 208.516 108.213C208.517 108.211 208.519 108.209 208.521 108.203C208.525 108.195 208.531 108.172 208.531 108.127C208.531 105.627 207.978 103.103 205.218 100.875C204.086 100.316 202.561 99.8511 201.343 99.8229C200.722 99.8085 200.247 99.9098 199.943 100.103C199.684 100.268 199.505 100.527 199.494 100.995Z" fill="#021825" stroke="#021825"/>
<path d="M191.025 112.916C190.71 114.09 190.763 114.87 191.132 115.7C191.522 116.576 192.267 117.52 193.448 118.997C194.622 120.041 195.934 120.965 196.947 121.544C197.428 121.819 197.819 122.001 198.084 122.089C198.622 119.795 198.298 117.164 196.259 114.371C195.298 113.525 194.023 112.65 192.936 112.279C192.382 112.09 191.948 112.057 191.648 112.149C191.392 112.228 191.157 112.422 191.025 112.916Z" fill="#021825" stroke="#021825"/>
<path d="M265.595 103.27C265.106 98.0856 265.422 93.3643 266.297 89.9338C266.736 88.2142 267.301 86.8738 267.934 85.9657C268.57 85.0529 269.187 84.6901 269.725 84.6394C270.262 84.5888 270.936 84.8298 271.732 85.6076C272.523 86.3814 273.329 87.5925 274.081 89.1997C275.582 92.4061 276.775 96.9852 277.264 102.169C277.753 107.353 277.437 112.073 276.562 115.504C276.123 117.224 275.558 118.565 274.925 119.473C274.289 120.386 273.672 120.748 273.135 120.798C272.597 120.849 271.923 120.609 271.128 119.831C270.336 119.057 269.531 117.845 268.778 116.238C267.277 113.032 266.084 108.453 265.595 103.27Z" stroke="#074264" stroke-width="2"/>
<path d="M305.036 141.945L300.033 141.423C295.916 140.994 292.001 139.423 288.729 136.888L287.625 136.033C285.159 134.123 283.905 131.04 284.335 127.951V127.951C284.856 124.215 282.91 120.568 279.516 118.921L273.5 116M295 125.5C279 117.333 277.5 100.5 278 93" stroke="#074264" stroke-width="2"/>
<path d="M274.037 116.601L270.405 109.134C269.223 106.704 268.354 104.133 267.818 101.484L266 92.5L272.125 86.4736M272.125 86.4736L275 114M272.125 86.4736C277 85.5 278 83 278 89" stroke="#074264" stroke-width="2"/>
<path d="M181 135C182.657 135 184 136.343 184 138V143C184 144.657 182.657 146 181 146H170V135H181Z" fill="#FEFEFE" fill-opacity="0.996078" stroke="#074264" stroke-width="2"/>
<path d="M164.5 138H168V139H164.5C164.224 139 164 138.776 164 138.5C164 138.224 164.224 138 164.5 138Z" stroke="#074264" stroke-width="2"/>
<path d="M164.5 143H168V144H164.5C164.224 144 164 143.776 164 143.5C164 143.224 164.224 143 164.5 143Z" stroke="#074264" stroke-width="2"/>
<rect x="68" y="51.0454" width="29" height="52.9545" rx="3" stroke="#074264" stroke-width="2"/>
<rect x="78.7734" y="81.5454" width="1.81818" height="7.45455" rx="0.909091" fill="#074264" stroke="#074264"/>
<rect x="84.4102" y="81.5456" width="1.81818" height="7.45455" rx="0.909091" fill="#074264" stroke="#074264"/>
<path d="M82.3867 91.4091H82.6143C83.4426 91.4092 84.1143 92.0807 84.1143 92.9091V94.6366H80.8867V92.9091C80.8867 92.0807 81.5583 91.4091 82.3867 91.4091Z" fill="#074264" stroke="#074264"/>
<rect x="78.7734" y="59" width="1.81818" height="7.45455" rx="0.909091" fill="#074264" stroke="#074264"/>
<rect x="84.4102" y="59" width="1.81818" height="7.45455" rx="0.909091" fill="#074264" stroke="#074264"/>
<path d="M82.3867 68.8636H82.6143C83.4426 68.8638 84.1143 69.5353 84.1143 70.3636V72.0912H80.8867V70.3636C80.8867 69.5352 81.5583 68.8636 82.3867 68.8636Z" fill="#074264" stroke="#074264"/>
<path d="M294 125.5L348.239 123H379.409C379.728 123 380.046 123.025 380.361 123.076L409.927 127.827C410.641 127.942 411.364 127.992 412.087 127.977L528 125.5" stroke="#074264" stroke-width="2"/>
<path d="M184.5 142L205 144.5L304.112 142" stroke="#074264" stroke-width="2"/>
</g>
<defs>
<clipPath id="clip0_765_9901">
<rect width="529" height="162" fill="white"/>
</clipPath>
</defs>
</svg>
